<?xml version="1.0" encoding="utf-8"?>
<!-- Generator: Adobe Illustrator 16.0.3, SVG Export Plug-In . SVG Version: 6.00 Build 0)  -->
<!DOCTYPE svg PUBLIC "-//W3C//DTD SVG 1.1//EN" "http://www.w3.org/Graphics/SVG/1.1/DTD/svg11.dtd">
<svg version="1.1" id="Layer_1" xmlns="http://www.w3.org/2000/svg" xmlns:xlink="http://www.w3.org/1999/xlink" x="0px" y="0px"
	 width="300px" height="200px" viewBox="362 412 300 200" enable-background="new 362 412 300 200" xml:space="preserve">
<g>
	<g>
		<path fill="#999999" d="M506.5,578.675c0-5.489-3.303-10.195-8-12.185V412h-10v154.49c-4.699,1.988-8,6.694-8,12.185
			s3.302,10.196,8,12.187V612h10v-21.14C503.197,588.87,506.5,584.164,506.5,578.675z"/>
	</g>
</g>
<path fill="#3C74B0" d="M559.095,515.073c-1.115,3.303-4.309,11.855-8.698,15.905c-6.401,5.906-12.735,9.989-24.365,15.229
	c-9.987,4.391-24.366,17.259-24.366,17.259v-12.183c0,0,0.814-2.219,2.03-3.046c2.083-1.416,10.152-7.785,21.32-12.183
	c3.696-1.456,13.047-7.053,16.244-10.152c4.933-4.784,6.533-9.796,6.966-11.538c-4.146-2.226-6.968-6.6-6.968-11.634
	c0-7.289,5.909-13.198,13.198-13.198s13.198,5.909,13.198,13.198C567.654,508.384,564.092,513.194,559.095,515.073z
	 M554.457,495.439c-3.925,0-7.107,3.182-7.107,7.107s3.183,7.106,7.107,7.106c3.924,0,7.106-3.182,7.106-7.106
	C561.563,498.62,558.381,495.439,554.457,495.439z"/>
</svg>
