<?xml version="1.0" encoding="utf-8"?>
<!-- Generator: Adobe Illustrator 16.0.3, SVG Export Plug-In . SVG Version: 6.00 Build 0)  -->
<!DOCTYPE svg PUBLIC "-//W3C//DTD SVG 1.1//EN" "http://www.w3.org/Graphics/SVG/1.1/DTD/svg11.dtd">
<svg version="1.1" id="Layer_1" xmlns="http://www.w3.org/2000/svg" xmlns:xlink="http://www.w3.org/1999/xlink" x="0px" y="0px"
	 width="300px" height="200px" viewBox="362 412 300 200" enable-background="new 362 412 300 200" xml:space="preserve">
<g id="Sidebar">
	<path fill="#F8F8F8" d="M406.411,612l-0.495-121.852c0-0.273,0.222-0.495,0.495-0.495h38.609c0.273,0,0.496,0.222,0.496,0.495
		L445.021,612H406.411z"/>
	<path fill="#CCCCCC" d="M445.021,483.981V612h-38.61V490.148h38.61 M445.021,489.158h-38.61c-0.546,0-0.99,0.443-0.99,0.99V612
		h40.59V490.148C446.011,489.602,445.567,489.158,445.021,489.158L445.021,489.158z"/>
</g>
<g id="Header">
	<path fill="#F8F8F8" d="M406.411,489.653c-0.273,0-0.495-0.222-0.495-0.495v-24.75c0-1.911,1.554-3.465,3.464-3.465h200.968
		c1.91,0,3.465,1.554,3.465,3.465v24.75c0,0.273-0.222,0.495-0.496,0.495H406.411z"/>
	<path fill="#CCCCCC" d="M610.349,461.438c1.64,0,2.969,1.33,2.969,2.97v24.75H406.411v-24.75c0-1.64,1.33-2.97,2.97-2.97H610.349
		 M610.349,460.449H409.381c-2.184,0-3.96,1.776-3.96,3.96v24.75c0,0.546,0.443,0.99,0.99,0.99h206.907
		c0.547,0,0.99-0.444,0.99-0.99v-24.75C614.309,462.225,612.531,460.449,610.349,460.449L610.349,460.449z"/>
</g>
<g id="Body">
	<path fill="#CCCCCC" d="M613.51,490.148V612H446.011l0.191-121.852H613.51 M613.51,489.158H446.202c-0.547,0-0.99,0.444-0.99,0.99
		L445.021,612h169.477V490.148C614.498,489.602,614.056,489.158,613.51,489.158L613.51,489.158z"/>
</g>
<path id="Title" fill="#B9B7B7" d="M417.157,473.813h68.309v2.97h-68.309V473.813z"/>
<g id="Buttons">
	<path fill="#CCCCCC" d="M603.872,469.358c1.64,0,2.969,1.33,2.969,2.97v5.939c0,1.64-1.329,2.97-2.969,2.97h-53.46
		c-1.64,0-2.971-1.33-2.971-2.97v-5.939c0-1.64,1.331-2.97,2.971-2.97H603.872 M603.872,468.369h-53.46
		c-2.184,0-3.96,1.776-3.96,3.96v5.939c0,2.184,1.776,3.96,3.96,3.96h53.46c2.183,0,3.959-1.777,3.959-3.96v-5.939
		C607.831,470.145,606.055,468.369,603.872,468.369L603.872,468.369z"/>
</g>
<g id="Button_text">
	<g>
		<path fill="#B9B7B7" d="M552.888,476.289h17.819v-1.98h-17.819V476.289z M583.577,474.308v1.98h17.819v-1.98H583.577z"/>
	</g>
</g>
<g>
	<g>
		<path fill="#AAFFAA" d="M466.991,566.377v2.97h141.567v-2.97H466.991z M466.991,578.257h141.567v-2.97H466.991V578.257z"/>
	</g>
</g>
<g>
	<g>
		<path fill="#FFC0CB" d="M466.991,548.558v2.97h141.567v-2.97H466.991z M466.991,560.437h141.567v-2.969H466.991V560.437z"/>
	</g>
</g>
<path fill="#CCCCCC" d="M576.647,469.358v11.88h0.989v-11.88H576.647z"/>
<g id="Code">
	<g>
		<path fill="#CCCCCC" d="M466.991,495.098h-15.84v2.97h15.84V495.098z M526.391,504.008h-75.239v2.97h75.239V504.008z
			 M466.991,521.827h-15.84v2.971h15.84V521.827z M526.391,530.737h-75.239v2.97h75.239V530.737z M451.151,539.647v2.97h157.407
			v-2.97H451.151z M451.151,587.167h157.407v-2.97H451.151V587.167z M451.151,596.077h157.407v-2.971H451.151V596.077z
			 M466.991,604.986h141.567v-2.97H466.991V604.986z M466.991,612h141.567v-1.074H466.991V612z"/>
	</g>
</g>
<g id="Line_numbers">
	<g>
		<path fill="#CCCCCC" d="M411.361,498.068h11.88v-2.97h-11.88V498.068z M428.191,495.098v2.97h11.88v-2.97H428.191z
			 M411.361,506.978h11.88v-2.97h-11.88V506.978z M428.191,506.978h11.88v-2.97h-11.88V506.978z M411.361,515.888h11.88v-2.969
			h-11.88V515.888z M428.191,515.888h11.88v-2.969h-11.88V515.888z M411.361,524.798h11.88v-2.971h-11.88V524.798z M428.191,524.798
			h11.88v-2.971h-11.88V524.798z M411.361,533.707h11.88v-2.97h-11.88V533.707z M428.191,533.707h11.88v-2.97h-11.88V533.707z
			 M411.361,542.617h11.88v-2.97h-11.88V542.617z M428.191,542.617h11.88v-2.97h-11.88V542.617z M411.361,551.527h11.88v-2.97
			h-11.88V551.527z M411.361,560.437h11.88v-2.969h-11.88V560.437z M428.191,569.347h11.88v-2.97h-11.88V569.347z M428.191,578.257
			h11.88v-2.97h-11.88V578.257z M411.361,587.167h11.88v-2.97h-11.88V587.167z M428.191,587.167h11.88v-2.97h-11.88V587.167z
			 M411.361,596.077h11.88v-2.971h-11.88V596.077z M428.191,596.077h11.88v-2.971h-11.88V596.077z M411.361,604.986h11.88v-2.97
			h-11.88V604.986z M428.191,604.986h11.88v-2.97h-11.88V604.986z M411.361,612h11.88v-1.074h-11.88V612z M428.191,612h11.88v-1.074
			h-11.88V612z"/>
	</g>
</g>
<g id="Comment">
	<path fill="#FFFFFF" stroke="#FFFFFF" stroke-width="8" stroke-miterlimit="10" d="M590.105,474.801c-0.093,0-0.185,0-0.277-0.001
		l-12.253,11.375c-0.517,0.479-1.187,0.729-1.864,0.729c-0.369,0,0.121-0.073-0.233-0.224c-0.994-0.438-0.781-1.422-0.781-2.509
		v-12.438c-8.745-3.761-14.619-10.608-14.619-18.425c0-11.846,13.472-21.484,30.028-21.484c16.556,0,30.026,9.639,30.026,21.485
		C620.132,465.158,606.661,474.801,590.105,474.801z"/>
	<path fill="#14892C" d="M590.105,474.801c-0.093,0-0.185,0-0.277-0.001l-12.253,11.375c-0.517,0.479-1.187,0.729-1.864,0.729
		c-0.369,0,0.121-0.073-0.233-0.224c-0.994-0.438-0.781-1.422-0.781-2.509v-12.438c-8.745-3.761-14.619-10.608-14.619-18.425
		c0-11.846,13.472-21.484,30.028-21.484c16.556,0,30.026,9.639,30.026,21.485C620.132,465.158,606.661,474.801,590.105,474.801z
		 M565.736,453.309c0,5.652,4.599,10.612,11.481,13.412l-0.028,0.08c0.706,0.486,1.177,1.293,1.199,2.211h0.082v8.887l8.806-8.187
		l0.03,0.031c0.491-0.415,1.128-0.665,1.82-0.665c0.229,0,0.45,0.027,0.662,0.079v-0.027c0.107,0,0.21,0.011,0.317,0.011
		c13.435,0,24.366-7.104,24.366-15.832c0-8.725-10.932-15.825-24.366-15.825C576.669,437.484,565.736,444.583,565.736,453.309z"/>
	<path fill="#14892C" d="M600.106,447.717l-2.06-2.3c-0.301-0.341-0.824-0.341-1.162,0l-9.103,10.396
		c-0.3,0.383-0.824,0.383-1.163,0l-3.295-3.75c-0.338-0.384-0.862-0.384-1.162,0l-2.06,2.301c-0.301,0.383-0.301,0.979,0,1.32
		l5.207,5.966c0.299,0.34,0.937,0.638,1.387,0.638h0.974c0.448,0,1.048-0.298,1.386-0.638l11.051-12.612
		C600.406,448.695,600.406,448.1,600.106,447.717z"/>
</g>
<g id="Comment_1_">
	<path fill="#FFFFFF" stroke="#FFFFFF" stroke-width="8" stroke-miterlimit="10" d="M610.177,569.606
		c-0.093,0-0.185-0.001-0.277-0.002l-12.254,11.376c-0.516,0.479-1.187,0.729-1.864,0.729c-0.368,0,0.121-0.072-0.233-0.225
		c-0.994-0.438-0.779-1.421-0.779-2.508v-12.438c-8.746-3.761-14.62-10.607-14.62-18.425c0-11.846,13.47-21.484,30.028-21.484
		c16.556,0,30.025,9.639,30.025,21.484C640.202,559.963,626.732,569.606,610.177,569.606z"/>
	<path fill="#3B73AF" d="M610.177,569.606c-0.093,0-0.185-0.001-0.277-0.002l-12.254,11.376c-0.516,0.479-1.187,0.729-1.864,0.729
		c-0.368,0,0.121-0.072-0.233-0.225c-0.994-0.438-0.779-1.421-0.779-2.508v-12.438c-8.746-3.761-14.62-10.607-14.62-18.425
		c0-11.846,13.47-21.484,30.028-21.484c16.556,0,30.025,9.639,30.025,21.484C640.202,559.963,626.732,569.606,610.177,569.606z
		 M585.807,548.114c0,5.652,4.599,10.612,11.482,13.411l-0.028,0.081c0.706,0.485,1.176,1.293,1.198,2.211h0.082v8.888l8.807-8.188
		l0.028,0.031c0.493-0.415,1.128-0.666,1.821-0.666c0.228,0,0.45,0.027,0.663,0.079v-0.026c0.107,0,0.21,0.011,0.317,0.011
		c13.435,0,24.366-7.104,24.366-15.833c0-8.725-10.932-15.824-24.366-15.824C596.74,532.289,585.807,539.39,585.807,548.114z"/>
	<g>
		<g>
			<path fill="#3B73AF" d="M622.875,545.195c-1.841,0-3.333,1.493-3.333,3.334s1.492,3.333,3.333,3.333s3.334-1.493,3.334-3.333
				C626.209,546.688,624.716,545.195,622.875,545.195z M610.175,545.195c-1.842,0-3.334,1.493-3.334,3.334s1.493,3.333,3.334,3.333
				c1.842,0,3.334-1.493,3.334-3.333C613.51,546.688,612.017,545.195,610.175,545.195z M597.475,545.195
				c-1.841,0-3.333,1.493-3.333,3.334s1.493,3.333,3.333,3.333c1.842,0,3.333-1.493,3.333-3.333
				C600.809,546.688,599.316,545.195,597.475,545.195z"/>
		</g>
	</g>
</g>
<g id="Comment_2_">
	<path fill="#FFFFFF" stroke="#FFFFFF" stroke-width="8" stroke-miterlimit="10" d="M383.796,522.048
		c0-11.846,13.47-21.484,30.025-21.484c16.558,0,30.029,9.639,30.029,21.484c0,7.816-5.875,14.664-14.621,18.425v12.437
		c0,1.088,0.214,2.071-0.781,2.51c-0.354,0.151,0.136,0.225-0.232,0.225c-0.678,0-1.349-0.25-1.865-0.729l-12.253-11.375
		c-0.093,0.001-0.185,0.002-0.278,0.002C397.266,543.54,383.796,533.897,383.796,522.048z"/>
	<path fill="#3B73AF" d="M383.796,522.048c0-11.846,13.47-21.484,30.025-21.484c16.558,0,30.029,9.639,30.029,21.484
		c0,7.816-5.875,14.664-14.621,18.425v12.437c0,1.088,0.214,2.071-0.781,2.51c-0.354,0.151,0.136,0.225-0.232,0.225
		c-0.678,0-1.349-0.25-1.865-0.729l-12.253-11.375c-0.093,0.001-0.185,0.002-0.278,0.002
		C397.266,543.54,383.796,533.897,383.796,522.048z M413.821,506.223c-13.434,0-24.366,7.101-24.366,15.826
		c0,8.729,10.932,15.832,24.366,15.832c0.107,0,0.21-0.011,0.317-0.011v0.027c0.212-0.052,0.435-0.079,0.664-0.079
		c0.692,0,1.328,0.251,1.82,0.665l0.03-0.03l8.806,8.187v-8.888h0.082c0.023-0.917,0.493-1.725,1.199-2.211l-0.028-0.08
		c6.883-2.801,11.482-7.761,11.482-13.412C438.191,513.323,427.259,506.223,413.821,506.223z"/>
	<g>
		<g>
			<path fill="#3B73AF" d="M401.123,519.13c-1.841,0-3.333,1.492-3.333,3.334c0,1.84,1.493,3.333,3.333,3.333
				c1.841,0,3.334-1.494,3.334-3.333C404.457,520.622,402.965,519.13,401.123,519.13z M413.824,519.13
				c-1.841,0-3.334,1.492-3.334,3.334c0,1.84,1.493,3.333,3.334,3.333c1.841,0,3.333-1.494,3.333-3.333
				C417.157,520.622,415.665,519.13,413.824,519.13z M426.523,519.13c-1.841,0-3.333,1.492-3.333,3.334
				c0,1.84,1.493,3.333,3.333,3.333s3.334-1.494,3.334-3.333C429.858,520.622,428.365,519.13,426.523,519.13z"/>
		</g>
	</g>
</g>
</svg>
