<?xml version="1.0" encoding="utf-8"?>
<!-- Generator: Adobe Illustrator 16.0.3, SVG Export Plug-In . SVG Version: 6.00 Build 0)  -->
<!DOCTYPE svg PUBLIC "-//W3C//DTD SVG 1.1//EN" "http://www.w3.org/Graphics/SVG/1.1/DTD/svg11.dtd">
<svg version="1.1" id="Layer_1" xmlns="http://www.w3.org/2000/svg" xmlns:xlink="http://www.w3.org/1999/xlink" x="0px" y="0px"
	 width="300px" height="200px" viewBox="362 412 300 200" enable-background="new 362 412 300 200" xml:space="preserve">
<path fill="#999999" d="M486.667,447.466v130.433c4.697,1.981,7.999,6.667,7.999,12.135s-3.302,10.154-7.999,12.136v9.934h-10
	v-9.933c-4.698-1.98-8.001-6.669-8.001-12.137s3.303-10.154,8.001-12.136V447.467c-4.698-1.981-8.001-6.668-8.001-12.136
	s3.303-10.156,8.001-12.136v-11.297h10v11.298c4.697,1.981,7.999,6.667,7.999,12.135S491.364,445.485,486.667,447.466z"/>
<path fill="#3C74B0" d="M555.479,512.177c0,5.631-3.548,10.422-8.525,12.294c-1.111,3.29-4.292,11.808-8.663,15.841
	c-6.376,5.883-12.684,9.95-24.268,15.168c-9.947,4.372-24.268,17.188-24.268,17.188v-12.134c0,0,0.811-2.21,2.022-3.033
	c2.074-1.41,10.11-7.753,21.233-12.134c3.682-1.449,12.995-7.024,16.179-10.111c4.913-4.766,6.508-9.757,6.938-11.492
	c-4.13-2.217-6.939-6.572-6.939-11.587c0-5.044,2.844-9.419,7.014-11.624c-0.295-1.339-1.747-6.703-7.013-11.81
	c-3.184-3.087-12.497-8.662-16.179-10.112c-11.123-4.379-19.16-10.723-21.233-12.133c-1.211-0.824-2.022-3.034-2.022-3.034v-12.133
	c0,0,14.32,12.816,24.268,17.189c11.584,5.217,17.892,9.284,24.268,15.167c4.566,4.214,7.833,13.32,8.798,16.245
	C551.995,501.84,555.479,506.596,555.479,512.177z"/>
</svg>
