<?xml version="1.0" encoding="utf-8"?>
<!-- Generator: Adobe Illustrator 16.0.3, SVG Export Plug-In . SVG Version: 6.00 Build 0)  -->
<!DOCTYPE svg PUBLIC "-//W3C//DTD SVG 1.1//EN" "http://www.w3.org/Graphics/SVG/1.1/DTD/svg11.dtd">
<svg version="1.1" id="Layer_1" xmlns="http://www.w3.org/2000/svg" xmlns:xlink="http://www.w3.org/1999/xlink" x="0px" y="0px"
	 width="256px" height="256px" viewBox="0 0 256 256" enable-background="new 0 0 256 256" xml:space="preserve">
<g>
	<g>
		<path fill="#E9E9E9" d="M157.672,127.315c0-16.541-13.402-29.949-29.945-29.949c-16.541,0-29.942,13.408-29.945,29.949
			c0,16.535,13.401,29.941,29.945,29.941C144.266,157.256,157.672,143.85,157.672,127.315z"/>
		<path fill="#E9E9E9" d="M224.574,202.201l-15.57-8.989c-1.96-1.134-4.443-0.729-5.949,0.961
			c-19.162,21.562-46.617,33.929-75.328,33.933c-28.712,0-56.169-12.366-75.332-33.931c-1.505-1.69-3.991-2.095-5.951-0.961
			l-15.571,8.99c-1.221,0.704-2.067,1.914-2.312,3.301c-0.246,1.388,0.136,2.813,1.042,3.896
			c24.45,29.179,60.216,45.914,98.126,45.914l0,0c37.904-0.006,73.666-16.744,98.117-45.918c0.904-1.08,1.286-2.506,1.039-3.895
			C226.641,204.114,225.796,202.905,224.574,202.201z"/>
		<path fill="#E9E9E9" d="M143.191,201.754c0.379,0,0.76-0.041,1.135-0.127c34.521-7.708,59.578-38.966,59.578-74.324
			c0-7.769-1.178-15.444-3.494-22.812c-0.475-1.505-1.605-2.716-3.076-3.289c-1.468-0.573-3.119-0.443-4.488,0.343l-9.287,5.359
			c-2.045,1.184-3.039,3.596-2.418,5.875c1.293,4.748,1.945,9.632,1.945,14.524c0,25.09-16.949,47.098-41.225,53.516
			c-2.282,0.604-3.873,2.671-3.873,5.033v10.696c0,1.578,0.718,3.073,1.949,4.06C140.87,201.357,142.021,201.754,143.191,201.754z"
			/>
		<path fill="#E9E9E9" d="M127.727,51.104c-21.202,0-41.625,8.985-56.037,24.661c-1.07,1.165-1.554,2.749-1.314,4.312
			c0.238,1.562,1.174,2.93,2.542,3.72l9.266,5.351c0.812,0.467,1.71,0.697,2.6,0.697c1.353,0,2.691-0.528,3.694-1.539
			c10.487-10.556,24.424-16.372,39.25-16.372c14.827,0,28.764,5.814,39.25,16.368c1.666,1.676,4.252,2.021,6.295,0.842l9.269-5.349
			c1.366-0.792,2.302-2.16,2.539-3.722c0.242-1.563-0.243-3.147-1.313-4.312C169.355,60.087,148.932,51.104,127.727,51.104z"/>
		<path fill="#E9E9E9" d="M32.111,159.136c-3.435-10.29-5.175-20.991-5.175-31.809c0.008-47.671,33.883-89.222,80.546-98.779
			c2.22-0.455,3.814-2.408,3.814-4.673V5.93c0-1.409-0.623-2.745-1.7-3.651c-1.079-0.908-2.503-1.296-3.89-1.048
			C44.31,11.932-0.261,64.955-0.273,127.324c0,15.102,2.619,29.895,7.784,43.971c0.484,1.321,1.528,2.361,2.854,2.842
			c0.527,0.191,1.077,0.286,1.625,0.286c0.828,0,1.652-0.216,2.385-0.641l15.597-9.007
			C31.934,163.643,32.829,161.286,32.111,159.136z"/>
		<path fill="#E9E9E9" d="M71.896,106.908l-9.284-5.361c-1.368-0.788-3.021-0.916-4.49-0.343c-1.47,0.573-2.602,1.786-3.075,3.291
			c-2.318,7.369-3.494,15.042-3.496,22.809c0,35.363,25.055,66.623,59.575,74.327c0.375,0.086,0.756,0.128,1.133,0.128
			c1.172,0,2.322-0.397,3.255-1.146c1.233-0.987,1.949-2.481,1.949-4.062v-10.695c0-2.361-1.59-4.43-3.873-5.032
			c-24.271-6.419-41.223-28.427-41.223-53.517c0-4.892,0.657-9.778,1.949-14.522C74.936,110.501,73.942,108.09,71.896,106.908z"/>
		<path fill="#E9E9E9" d="M149.747,1.229c-1.386-0.242-2.812,0.142-3.89,1.049c-1.078,0.906-1.699,2.242-1.699,3.651v17.944
			c0,2.266,1.595,4.219,3.812,4.673c46.672,9.555,80.547,51.105,80.547,98.776c0,10.816-1.742,21.519-5.177,31.812
			c-0.718,2.15,0.177,4.509,2.14,5.642l15.599,9.005c0.733,0.424,1.556,0.64,2.384,0.64c0.549,0,1.098-0.095,1.626-0.286
			c1.324-0.479,2.367-1.519,2.854-2.84c5.166-14.077,7.783-28.871,7.783-43.971C255.727,64.955,211.156,11.93,149.747,1.229z"/>
	</g>
</g>
</svg>
